<svg xmlns="http://www.w3.org/2000/svg" version="1.1" xmlns:xlink="http://www.w3.org/1999/xlink" width="1000" height="1000"><metadata><rdf:RDF xmlns:rdf="http://www.w3.org/1999/02/22-rdf-syntax-ns#" xmlns:dc="http://purl.org/dc/elements/1.1/"><rdf:Description><dc:creator>RealFaviconGenerator</dc:creator><dc:source>https://realfavicongenerator.net</dc:source></rdf:Description></rdf:RDF></metadata><g clip-path="url(#SvgjsClipPath1068)"><rect width="1000" height="1000" fill="#141414"></rect><g transform="matrix(0.68359375,0,0,0.68359375,150,150)"><svg xmlns="http://www.w3.org/2000/svg" viewBox="0 0 1024 1024" fill="none" width="1024" height="1024"><path d="M210 842V330C210 286 226 251 258 219L382 95V842H210Z" fill="#fff"></path><path fill-rule="evenodd" clip-rule="evenodd" d="M382 95H608C754 95 848 187 848 326C848 465 754 557 608 557H382V405H594C661 405 696 375 696 326C696 277 661 247 594 247H382V95Z" fill="#fff"></path></svg></g></g><defs><clipPath id="SvgjsClipPath1068"><rect width="1000" height="1000" x="0" y="0" rx="350" ry="350"></rect></clipPath></defs></svg>